<svg width="227" height="217" viewBox="0 0 227 217" fill="none" xmlns="http://www.w3.org/2000/svg">
<path d="M21.1495 94.1915C9.46897 82.615 9.38457 63.7615 20.961 52.0809L51.6165 21.1497C63.193 9.46913 82.0465 9.38473 93.7271 20.9612L124.658 51.6167C136.339 63.1931 136.423 82.0467 124.847 93.7272L73.2303 145.808L21.1495 94.1915Z" fill="#FCA311"/>
<path d="M130.992 92.8249C142.32 80.9029 161.167 80.4212 173.089 91.7489L204.66 121.746C216.582 133.073 217.064 151.921 205.736 163.843L175.739 195.413C164.411 207.335 145.564 207.817 133.642 196.489L80.4848 145.982L130.992 92.8249Z" fill="#0D1629"/>
<path d="M19.3526 84.4624H24.7433C25.7235 84.4624 26.2625 83.8743 26.5076 83.2862L28.2718 79.3657H41.6016L43.3659 83.2372C43.8069 84.1684 44.199 84.4624 45.0811 84.4624H50.5209C51.256 84.4624 51.648 83.8253 51.354 83.1882L36.0149 50.2067C35.8679 49.9127 35.5248 49.6677 35.1818 49.6677H34.6917C34.3486 49.6677 34.0056 49.9127 33.8586 50.2067L18.5195 83.1882C18.2254 83.8253 18.6175 84.4624 19.3526 84.4624ZM31.2122 72.7008L34.8877 64.6147H34.9367L38.6612 72.7008H31.2122ZM53.5225 83.5313C53.5225 84.0213 53.9636 84.4624 54.4536 84.4624H59.5993C60.2854 84.4624 60.4815 83.9723 60.4815 83.5313V74.122C60.4815 72.1127 62.2457 70.6915 64.206 70.6915C66.4113 70.6915 67.5384 72.4068 67.5384 74.367V83.5313C67.5384 84.0213 67.9305 84.4624 68.4695 84.4624H73.7133C74.2033 84.4624 74.6444 84.0213 74.6444 83.5313V74.6121C74.6444 69.0253 71.4099 64.3697 65.3331 64.3697C61.7556 64.3697 59.5013 66.2319 58.4232 67.4081L57.6391 65.4478C57.4921 65.1048 57.051 64.8597 56.757 64.8597H54.4536C53.9636 64.8597 53.5225 65.2518 53.5225 65.7909V83.5313ZM82.9912 58.9299C85.1475 58.9299 86.9118 57.2147 86.9118 55.0584C86.9118 52.9021 85.1475 51.1379 82.9912 51.1379C80.8349 51.1379 79.1197 52.9021 79.1197 55.0584C79.1197 57.2147 80.8349 58.9299 82.9912 58.9299ZM79.4137 83.5313C79.4137 84.0213 79.8548 84.4624 80.3449 84.4624H85.7356C86.2257 84.4624 86.6667 84.0213 86.6667 83.5313V65.7909C86.6667 65.2518 86.2257 64.8597 85.7356 64.8597H80.3449C79.8548 64.8597 79.4137 65.2518 79.4137 65.7909V83.5313ZM91.9526 83.5313C91.9526 84.0213 92.3446 84.4624 92.8837 84.4624H98.0294C98.5194 84.4624 98.9605 84.0213 98.9605 83.5313V74.122C98.9605 72.1127 100.431 70.6915 102.391 70.6915C104.596 70.6915 105.478 72.4068 105.478 74.367V83.5313C105.478 84.0213 105.87 84.4624 106.41 84.4624H111.114C111.653 84.4624 112.045 84.0213 112.045 83.5313V74.024C112.045 72.1127 113.614 70.6915 115.329 70.6915C117.583 70.6915 118.612 72.4068 118.612 74.367V83.5313C118.612 84.0213 119.004 84.4624 119.543 84.4624H124.738C125.277 84.4624 125.669 84.0213 125.669 83.5313V74.6611C125.669 69.0743 122.68 64.3697 116.603 64.3697C113.27 64.3697 110.967 66.2319 109.84 67.3591C108.076 65.3988 106.164 64.3697 103.42 64.3697C100.284 64.3697 98.0294 66.1339 96.8042 67.4081L95.9711 65.3988C95.8241 65.1048 95.481 64.8597 95.138 64.8597H92.8837C92.3446 64.8597 91.9526 65.2518 91.9526 65.7909V83.5313Z" fill="#0A111F"/>
<path d="M129.008 74.6611C129.008 80.2968 133.419 84.9525 139.251 84.9525C142.338 84.9525 144.788 83.8743 146.504 82.1591C146.945 81.718 146.847 81.1299 146.553 80.7379L144.102 77.7975C143.808 77.4544 143.318 77.4544 142.877 77.7975C142.093 78.3856 140.672 78.9737 139.447 78.9737C136.898 78.9737 135.82 77.0624 135.673 75.7392H147.435C147.876 75.7392 148.317 75.3962 148.366 74.9061C148.415 74.5631 148.464 73.926 148.464 73.5829C148.464 68.1922 144.151 64.3697 139.152 64.3697C133.37 64.3697 129.008 69.1233 129.008 74.6611ZM136.31 71.9167C136.506 70.6425 137.633 69.6134 138.956 69.6134C140.231 69.6134 141.456 70.6425 141.554 71.9167H136.31Z" fill="white"/>
<path d="M68.4655 113.303C68.4655 123.104 76.3065 130.847 86.0589 130.847C93.1648 130.847 98.2125 127.662 98.2125 127.662C98.4086 127.515 98.6046 127.123 98.6046 126.878L98.5556 113.695C98.5556 113.205 98.1635 112.764 97.6735 112.764H87.8231C87.284 112.764 86.892 113.156 86.892 113.695V118.547C86.892 119.037 87.284 119.429 87.8231 119.429H90.9105V122.271C89.4403 122.859 87.9701 123.055 86.5489 123.055C81.2072 123.055 76.8456 118.645 76.8456 113.303C76.8456 107.912 81.1582 103.404 86.4999 103.404C88.9013 103.404 91.0576 104.041 92.9198 105.756C93.3119 106.05 93.8509 106.05 94.243 105.707L98.1145 101.59C98.5066 101.198 98.4576 100.61 98.0165 100.267C94.684 97.3757 90.1754 95.6605 86.0589 95.6605C76.3065 95.6605 68.4655 103.502 68.4655 113.303Z" fill="#0A111F"/>
<path d="M102.238 120.556C102.238 126.192 106.845 130.896 112.432 130.896C118.019 130.896 122.625 126.192 122.625 120.556C122.625 115.018 118.019 110.314 112.432 110.314C106.845 110.314 102.238 115.018 102.238 120.556ZM108.56 120.556C108.56 118.4 110.275 116.635 112.432 116.635C114.588 116.635 116.303 118.4 116.303 120.556C116.303 122.761 114.588 124.574 112.432 124.574C110.275 124.574 108.56 122.761 108.56 120.556ZM126.394 129.475C126.394 129.965 126.835 130.406 127.326 130.406H132.765C133.255 130.406 133.696 129.965 133.696 129.475V121.487L140.361 130.014C140.508 130.21 140.9 130.406 141.096 130.406H147.712C148.545 130.406 148.987 129.573 148.447 128.936L140.606 119.821L147.075 112.323C147.614 111.637 147.173 110.804 146.34 110.804H140.851C140.263 110.804 139.92 111.098 139.626 111.392L133.696 118.253V97.0327C133.696 96.5426 133.255 96.1016 132.765 96.1016H127.326C126.835 96.1016 126.394 96.5426 126.394 97.0327V129.475ZM150.744 120.605C150.744 126.192 153.537 130.896 159.369 130.896C163.143 130.896 164.711 129.132 165.985 127.907L166.72 129.72C166.867 130.063 167.21 130.406 167.651 130.406H169.954C170.445 130.406 170.886 129.965 170.886 129.475V111.735C170.886 111.196 170.445 110.804 169.954 110.804H164.956C164.466 110.804 163.927 110.951 163.927 111.735V121.095C163.927 122.761 162.898 124.574 160.986 124.574C158.977 124.574 157.85 122.81 157.85 120.801V111.735C157.85 111.196 157.409 110.804 156.919 110.804H151.675C151.185 110.804 150.744 111.196 150.744 111.735V120.605Z" fill="white"/>
</svg>
