<svg width="27" height="21" viewBox="0 0 27 21" fill="none" xmlns="http://www.w3.org/2000/svg">
<path d="M22.8566 1.86319C21.1358 1.07357 19.2904 0.491819 17.3609 0.158624C17.3257 0.152194 17.2906 0.168264 17.2725 0.200405C17.0352 0.622522 16.7723 1.17321 16.5882 1.60604C14.513 1.29535 12.4483 1.29535 10.4156 1.60604C10.2315 1.16359 9.95905 0.622522 9.72065 0.200405C9.70255 0.169336 9.66744 0.153266 9.63231 0.158624C7.7039 0.490755 5.85851 1.07251 4.13655 1.86319C4.12164 1.86962 4.10887 1.88034 4.10039 1.89426C0.600066 7.12367 -0.358819 12.2245 0.111578 17.2622C0.113706 17.2868 0.127541 17.3104 0.146698 17.3254C2.45611 19.0213 4.69317 20.051 6.88869 20.7334C6.92383 20.7441 6.96106 20.7313 6.98342 20.7023C7.50277 19.9931 7.96572 19.2453 8.36266 18.4589C8.38609 18.4128 8.36372 18.3582 8.31585 18.34C7.58152 18.0614 6.8823 17.7218 6.2097 17.3361C6.15649 17.305 6.15224 17.2289 6.20118 17.1925C6.34272 17.0864 6.4843 16.9761 6.61945 16.8647C6.6439 16.8443 6.67797 16.84 6.70672 16.8529C11.1254 18.8703 15.9092 18.8703 20.2758 16.8529C20.3046 16.839 20.3386 16.8432 20.3642 16.8636C20.4994 16.975 20.6409 17.0864 20.7835 17.1925C20.8324 17.2289 20.8292 17.305 20.776 17.3361C20.1034 17.7293 19.4042 18.0614 18.6688 18.3389C18.6209 18.3571 18.5997 18.4128 18.6231 18.4589C19.0285 19.2442 19.4915 19.992 20.0013 20.7013C20.0226 20.7313 20.0608 20.7441 20.096 20.7334C22.3022 20.051 24.5392 19.0213 26.8486 17.3254C26.8688 17.3104 26.8816 17.2879 26.8837 17.2632C27.4467 11.4392 25.9408 6.38014 22.8917 1.89533C22.8843 1.88034 22.8715 1.86962 22.8566 1.86319ZM9.02253 14.1948C7.69219 14.1948 6.59602 12.9734 6.59602 11.4735C6.59602 9.97353 7.67093 8.75218 9.02253 8.75218C10.3847 8.75218 11.4703 9.98426 11.449 11.4735C11.449 12.9734 10.3741 14.1948 9.02253 14.1948ZM17.9941 14.1948C16.6638 14.1948 15.5676 12.9734 15.5676 11.4735C15.5676 9.97353 16.6425 8.75218 17.9941 8.75218C19.3563 8.75218 20.4419 9.98426 20.4206 11.4735C20.4206 12.9734 19.3563 14.1948 17.9941 14.1948Z" fill="white"/>
</svg>
