<svg width="34" height="34" viewBox="0 0 34 34" fill="none" xmlns="http://www.w3.org/2000/svg">
<path opacity="0.4" d="M22.9358 2.83301H11.0642C5.90749 2.83301 2.83333 5.90717 2.83333 11.0638V22.9213C2.83333 28.0922 5.90749 31.1663 11.0642 31.1663H22.9217C28.0783 31.1663 31.1525 28.0922 31.1525 22.9355V11.0638C31.1667 5.90717 28.0925 2.83301 22.9358 2.83301Z" fill="#FCA311"/>
<path d="M23.7264 9.91699H16.8839C16.3031 9.91699 15.8214 10.3987 15.8214 10.9795C15.8214 11.5603 16.3031 12.042 16.8839 12.042H21.1622L10.2256 22.9787C9.81473 23.3895 9.81473 24.0695 10.2256 24.4803C10.4381 24.6928 10.7072 24.792 10.9764 24.792C11.2456 24.792 11.5147 24.6928 11.7272 24.4803L22.6639 13.5437V17.822C22.6639 18.4028 23.1456 18.8845 23.7264 18.8845C24.3072 18.8845 24.7889 18.4028 24.7889 17.822V10.9795C24.7889 10.3987 24.3072 9.91699 23.7264 9.91699Z" fill="#FCA311"/>
</svg>
