<svg width="27" height="27" viewBox="0 0 27 27" fill="none" xmlns="http://www.w3.org/2000/svg">
<path d="M13.5 2.60996C17.0491 2.60996 17.4657 2.62578 18.8684 2.68906C20.1657 2.74707 20.867 2.96328 21.3364 3.14785C21.9586 3.39043 22.4016 3.6752 22.8657 4.13926C23.3297 4.60332 23.6198 5.04629 23.8571 5.66855C24.0364 6.13789 24.2578 6.83926 24.3159 8.13652C24.3791 9.53926 24.395 9.95586 24.395 13.5049C24.395 17.0539 24.3791 17.4705 24.3159 18.8732C24.2578 20.1705 24.0416 20.8719 23.8571 21.3412C23.6145 21.9635 23.3297 22.4064 22.8657 22.8705C22.4016 23.3346 21.9586 23.6246 21.3364 23.8619C20.867 24.0412 20.1657 24.2627 18.8684 24.3207C17.4657 24.384 17.0491 24.3998 13.5 24.3998C9.95101 24.3998 9.53441 24.384 8.13168 24.3207C6.83441 24.2627 6.13304 24.0465 5.66371 23.8619C5.04144 23.6193 4.59847 23.3346 4.13441 22.8705C3.67035 22.4064 3.38031 21.9635 3.14301 21.3412C2.96371 20.8719 2.74222 20.1705 2.68422 18.8732C2.62094 17.4705 2.60511 17.0539 2.60511 13.5049C2.60511 9.95586 2.62094 9.53926 2.68422 8.13652C2.74222 6.83926 2.95844 6.13789 3.14301 5.66855C3.38558 5.04629 3.67035 4.60332 4.13441 4.13926C4.59847 3.6752 5.04144 3.38516 5.66371 3.14785C6.13304 2.96855 6.83441 2.74707 8.13168 2.68906C9.53441 2.62051 9.95101 2.60996 13.5 2.60996ZM13.5 0.21582C9.893 0.21582 9.43949 0.231641 8.02094 0.294922C6.60765 0.358203 5.64261 0.584961 4.79886 0.911914C3.92347 1.24941 3.18519 1.7082 2.44691 2.44648C1.70863 3.18477 1.25511 3.92832 0.912341 4.79844C0.585388 5.64219 0.35863 6.60723 0.295349 8.02578C0.232068 9.43906 0.216248 9.89258 0.216248 13.4996C0.216248 17.1066 0.232068 17.5602 0.295349 18.9787C0.35863 20.392 0.585388 21.357 0.912341 22.2061C1.24984 23.0814 1.70863 23.8197 2.44691 24.558C3.18519 25.2963 3.92875 25.7498 4.79886 26.0926C5.64261 26.4195 6.60765 26.6463 8.02621 26.7096C9.44476 26.7729 9.89301 26.7887 13.5053 26.7887C17.1176 26.7887 17.5659 26.7729 18.9844 26.7096C20.3977 26.6463 21.3627 26.4195 22.2118 26.0926C23.0871 25.7551 23.8254 25.2963 24.5637 24.558C25.302 23.8197 25.7555 23.0762 26.0983 22.2061C26.4252 21.3623 26.652 20.3973 26.7153 18.9787C26.7786 17.5602 26.7944 17.1119 26.7944 13.4996C26.7944 9.8873 26.7786 9.43906 26.7153 8.02051C26.652 6.60723 26.4252 5.64219 26.0983 4.79316C25.7608 3.91777 25.302 3.17949 24.5637 2.44121C23.8254 1.70293 23.0819 1.24941 22.2118 0.906641C21.368 0.579688 20.403 0.35293 18.9844 0.289648C17.5606 0.231641 17.1071 0.21582 13.5 0.21582Z" fill="white"/>
<path d="M13.5 6.67578C9.7348 6.67578 6.67621 9.7291 6.67621 13.4996C6.67621 17.2701 9.7348 20.3234 13.5 20.3234C17.2653 20.3234 20.3239 17.2648 20.3239 13.4996C20.3239 9.73437 17.2653 6.67578 13.5 6.67578ZM13.5 17.9293C11.0532 17.9293 9.07035 15.9465 9.07035 13.4996C9.07035 11.0527 11.0532 9.06992 13.5 9.06992C15.9469 9.06992 17.9297 11.0527 17.9297 13.4996C17.9297 15.9465 15.9469 17.9293 13.5 17.9293Z" fill="white"/>
<path d="M20.5928 7.99961C21.4723 7.99961 22.1853 7.28659 22.1853 6.40703C22.1853 5.52747 21.4723 4.81445 20.5928 4.81445C19.7132 4.81445 19.0002 5.52747 19.0002 6.40703C19.0002 7.28659 19.7132 7.99961 20.5928 7.99961Z" fill="white"/>
</svg>
