<svg width="80" height="80" viewBox="0 0 80 80" fill="none" xmlns="http://www.w3.org/2000/svg">
<path opacity="0.4" d="M57.8986 65.3255C56.438 63.7584 54.5723 63.0175 52.7312 63.1177C50.89 63.218 49.1158 64.1571 47.8334 65.867L47.833 65.8675L44.468 70.3652C44.4677 70.3657 44.4674 70.3661 44.467 70.3665C43.1974 72.043 41.5707 72.842 39.9834 72.842C38.396 72.842 36.7693 72.043 35.4997 70.3665C35.4993 70.3661 35.499 70.3657 35.4987 70.3652L32.1337 65.8675L32.1334 65.867L57.8992 65.3261C57.899 65.3259 57.8988 65.3257 57.8986 65.3255ZM57.8986 65.3255C59.3534 66.8784 60.7134 67.8837 61.9168 68.4027C63.1154 68.9195 64.1281 68.9432 64.9435 68.5913C65.7626 68.2377 66.4757 67.4651 66.9888 66.2008C67.5026 64.9349 67.8 63.2104 67.8 61.0337V23.467V23.4658C67.8167 16.7414 67.0281 12.7329 64.8221 10.3708C62.6271 8.02039 58.8992 7.16699 52.6 7.16699H27.4C21.101 7.16699 17.3727 8.0203 15.1735 10.3711C12.9631 12.7337 12.1667 16.7427 12.1667 23.467V61.0003C12.1667 63.1852 12.4661 64.9137 12.9824 66.1816C13.4979 67.4476 14.2139 68.2207 15.0353 68.5744C15.8533 68.9267 16.8675 68.9028 18.0644 68.3879C19.2661 67.871 20.6218 66.8698 22.0681 65.3255C22.0682 65.3254 22.0683 65.3253 22.0684 65.3252L22.4334 65.667L57.8986 65.3255Z" fill="#FCA311" stroke="#FCA311"/>
<path d="M53.3334 25.333H26.6667C25.5762 25.333 24.6667 24.4235 24.6667 23.333C24.6667 22.2425 25.5762 21.333 26.6667 21.333H53.3334C54.4239 21.333 55.3334 22.2425 55.3334 23.333C55.3334 24.4235 54.4239 25.333 53.3334 25.333Z" fill="#FCA311" stroke="#FCA311"/>
<path d="M50 38.667H30C28.9095 38.667 28 37.7575 28 36.667C28 35.5765 28.9095 34.667 30 34.667H50C51.0905 34.667 52 35.5765 52 36.667C52 37.7575 51.0905 38.667 50 38.667Z" fill="#FCA311" stroke="#FCA311"/>
</svg>
