<svg width="25" height="20" viewBox="0 0 25 20" fill="none" xmlns="http://www.w3.org/2000/svg">
<path d="M22.0508 4.97895C22.0658 5.19593 22.0658 5.41292 22.0658 5.63191C22.0658 12.3045 16.996 20 7.72553 20V19.996C4.98701 20 2.30538 19.2141 0 17.7321C0.398203 17.7801 0.798401 17.8041 1.1996 17.8051C3.46905 17.8071 5.67364 17.0442 7.45906 15.6393C5.30238 15.5983 3.41117 14.1894 2.75049 12.1325C3.50598 12.2785 4.28442 12.2485 5.02594 12.0455C2.67464 11.5695 0.983032 9.49966 0.983032 7.09581C0.983032 7.07382 0.983032 7.05282 0.983032 7.03182C1.68363 7.42279 2.46806 7.63978 3.27045 7.66378C1.05589 6.18087 0.373253 3.22906 1.71057 0.921204C4.26945 4.076 8.04489 5.99388 12.0978 6.19687C11.6916 4.44298 12.2465 2.6051 13.5559 1.37218C15.5858 -0.539704 18.7784 -0.44171 20.6866 1.59116C21.8153 1.36818 22.8972 0.953202 23.8872 0.365239C23.5109 1.53417 22.7235 2.5271 21.6716 3.15806C22.6706 3.04007 23.6466 2.77209 24.5658 2.36311C23.8892 3.37905 23.0369 4.26399 22.0508 4.97895Z" fill="white"/>
</svg>
